<svg id="SvgjsSvg1012" width="25" height="28" xmlns="http://www.w3.org/2000/svg" version="1.1" xmlnsXlink="http://www.w3.org/1999/xlink" xmlnsSvgjs="http://svgjs.com/svgjs"><defs id="SvgjsDefs1013"></defs><g id="SvgjsG1014" transform="matrix(1,0,0,1,0,0)"><svg xmlns="http://www.w3.org/2000/svg" viewBox="0 0 16 16" width="25" height="25"><path fill="none" stroke="#fff" stroke-linecap="round" stroke-linejoin="round" stroke-miterlimit="10" d="M7.5 15.5H2c-.83 0-1.5-.67-1.5-1.5V2C.5 1.17 1.17.5 2 .5h12c.83 0 1.5.67 1.5 1.5v12c0 .83-.67 1.5-1.5 1.5h-3.5V10H12l1-2.5h-2.5v-2c0-.55.45-.5 1-.5h1V2.5h-2c-.83 0-1.58.34-2.12.88S7.5 4.67 7.5 5.5v2h-2V10h2v5.5z" clip-rule="evenodd" class="colorStroke000 svgStroke"></path></svg></g></svg>
